<svg width="25" height="25" viewBox="0 0 25 25" fill="none" xmlns="http://www.w3.org/2000/svg">
<path d="M11.375 21.25H13.5625V19.6875C14.6042 19.5 15.5 19.0938 16.25 18.4688C17 17.8438 17.375 16.9167 17.375 15.6875C17.375 14.8125 17.125 14.0104 16.625 13.2812C16.125 12.5521 15.125 11.9167 13.625 11.375C12.375 10.9583 11.5104 10.5938 11.0312 10.2812C10.5521 9.96875 10.3125 9.54167 10.3125 9C10.3125 8.45833 10.5052 8.03125 10.8906 7.71875C11.276 7.40625 11.8333 7.25 12.5625 7.25C13.2292 7.25 13.75 7.41146 14.125 7.73438C14.5 8.05729 14.7708 8.45833 14.9375 8.9375L16.9375 8.125C16.7083 7.39583 16.2865 6.76042 15.6719 6.21875C15.0573 5.67708 14.375 5.375 13.625 5.3125V3.75H11.4375V5.3125C10.3958 5.54167 9.58333 6 9 6.6875C8.41667 7.375 8.125 8.14583 8.125 9C8.125 9.97917 8.41146 10.7708 8.98438 11.375C9.55729 11.9792 10.4583 12.5 11.6875 12.9375C13 13.4167 13.9115 13.8438 14.4219 14.2188C14.9323 14.5938 15.1875 15.0833 15.1875 15.6875C15.1875 16.375 14.9427 16.8802 14.4531 17.2031C13.9635 17.526 13.375 17.6875 12.6875 17.6875C12 17.6875 11.3906 17.474 10.8594 17.0469C10.3281 16.6198 9.9375 15.9792 9.6875 15.125L7.625 15.9375C7.91667 16.9375 8.36979 17.7448 8.98438 18.3594C9.59896 18.974 10.3958 19.3958 11.375 19.625V21.25ZM12.5 25C10.7708 25 9.14583 24.6719 7.625 24.0156C6.10417 23.3594 4.78125 22.4688 3.65625 21.3438C2.53125 20.2188 1.64062 18.8958 0.984375 17.375C0.328125 15.8542 0 14.2292 0 12.5C0 10.7708 0.328125 9.14583 0.984375 7.625C1.64062 6.10417 2.53125 4.78125 3.65625 3.65625C4.78125 2.53125 6.10417 1.64062 7.625 0.984375C9.14583 0.328125 10.7708 0 12.5 0C14.2292 0 15.8542 0.328125 17.375 0.984375C18.8958 1.64062 20.2188 2.53125 21.3438 3.65625C22.4688 4.78125 23.3594 6.10417 24.0156 7.625C24.6719 9.14583 25 10.7708 25 12.5C25 14.2292 24.6719 15.8542 24.0156 17.375C23.3594 18.8958 22.4688 20.2188 21.3438 21.3438C20.2188 22.4688 18.8958 23.3594 17.375 24.0156C15.8542 24.6719 14.2292 25 12.5 25ZM12.5 22.5C15.2917 22.5 17.6562 21.5312 19.5938 19.5938C21.5312 17.6562 22.5 15.2917 22.5 12.5C22.5 9.70833 21.5312 7.34375 19.5938 5.40625C17.6562 3.46875 15.2917 2.5 12.5 2.5C9.70833 2.5 7.34375 3.46875 5.40625 5.40625C3.46875 7.34375 2.5 9.70833 2.5 12.5C2.5 15.2917 3.46875 17.6562 5.40625 19.5938C7.34375 21.5312 9.70833 22.5 12.5 22.5Z" fill="#FFA952"/>
</svg>
